<?xml version="1.0" encoding="utf-8" standalone="yes"?> <svg width="1000" height="1000" viewBox="-1 -1 35 35" xmlns="http://www.w3.org/2000/svg" shape-rendering="crispEdges" id="qr code"><rect id="qr background" fill-opacity="1" fill="rgb(255, 255, 255)" x="-1" y="-1" width="35" height="35"></rect><path fill-opacity="1" fill="rgb(0, 0, 0)" id="qr dark pixels" fill-rule="evenodd" d="M 9 0 L 10 0 L 10 2 L 11 2 L 11 1 L 13 1 L 13 0 L 14 0 L 14 1 L 17 1 L 17 3 L 15 3 L 15 4 L 14 4 L 14 5 L 12 5 L 12 4 L 13 4 L 13 3 L 14 3 L 14 2 L 12 2 L 12 4 L 11 4 L 11 3 L 10 3 L 10 4 L 8 4 L 8 3 L 9 3 L 9 2 L 8 2 L 8 1 L 9 1 z M 17 0 L 24 0 L 24 1 L 22 1 L 22 3 L 20 3 L 20 1 L 17 1 z M 24 2 L 25 2 L 25 4 L 24 4 z M 17 3 L 18 3 L 18 4 L 17 4 z M 19 3 L 20 3 L 20 5 L 18 5 L 18 4 L 19 4 z M 22 3 L 23 3 L 23 4 L 24 4 L 24 5 L 22 5 L 22 6 L 21 6 L 21 4 L 22 4 z M 10 4 L 11 4 L 11 7 L 10 7 z M 16 4 L 17 4 L 17 8 L 16 8 L 16 9 L 12 9 L 12 6 L 13 6 L 13 8 L 14 8 L 14 6 L 15 6 L 15 7 L 16 7 L 16 6 L 15 6 L 15 5 L 16 5 z M 8 5 L 9 5 L 9 7 L 8 7 z M 18 6 L 19 6 L 19 7 L 18 7 z M 20 6 L 21 6 L 21 7 L 22 7 L 22 8 L 21 8 L 21 10 L 19 10 L 19 9 L 20 9 z M 22 6 L 23 6 L 23 7 L 22 7 z M 24 6 L 25 6 L 25 7 L 24 7 z M 23 7 L 24 7 L 24 8 L 26 8 L 26 9 L 27 9 L 27 10 L 25 10 L 25 11 L 24 11 L 24 10 L 23 10 z M 0 8 L 5 8 L 5 10 L 4 10 L 4 9 L 3 9 L 3 10 L 2 10 L 2 11 L 1 11 L 1 9 L 0 9 z M 6 8 L 11 8 L 11 9 L 10 9 L 10 11 L 11 11 L 11 10 L 13 10 L 13 11 L 12 11 L 12 12 L 14 12 L 14 13 L 13 13 L 13 16 L 11 16 L 11 15 L 12 15 L 12 13 L 11 13 L 11 12 L 10 12 L 10 13 L 9 13 L 9 11 L 8 11 L 8 9 L 6 9 z M 17 8 L 18 8 L 18 9 L 17 9 z M 27 8 L 28 8 L 28 9 L 27 9 z M 29 8 L 30 8 L 30 9 L 29 9 z M 31 8 L 32 8 L 32 9 L 33 9 L 33 10 L 32 10 L 32 11 L 31 11 L 31 10 L 30 10 L 30 9 L 31 9 z M 16 9 L 17 9 L 17 10 L 16 10 z M 5 10 L 7 10 L 7 11 L 6 11 L 6 12 L 5 12 z M 14 10 L 16 10 L 16 11 L 17 11 L 17 12 L 18 12 L 18 13 L 17 13 L 17 14 L 19 14 L 19 15 L 15 15 L 15 14 L 16 14 L 16 13 L 15 13 L 15 11 L 14 11 z M 17 10 L 19 10 L 19 11 L 17 11 z M 22 10 L 23 10 L 23 11 L 24 11 L 24 12 L 26 12 L 26 13 L 24 13 L 24 14 L 23 14 L 23 13 L 22 13 L 22 12 L 20 12 L 20 13 L 22 13 L 22 14 L 21 14 L 21 15 L 20 15 L 20 14 L 19 14 L 19 11 L 22 11 z M 27 10 L 28 10 L 28 12 L 27 12 z M 29 10 L 30 10 L 30 11 L 29 11 z M 2 11 L 3 11 L 3 12 L 5 12 L 5 13 L 1 13 L 1 12 L 2 12 z M 7 11 L 8 11 L 8 14 L 7 14 L 7 13 L 6 13 L 6 12 L 7 12 z M 30 11 L 31 11 L 31 12 L 30 12 z M 28 12 L 30 12 L 30 13 L 28 13 z M 10 13 L 11 13 L 11 14 L 10 14 z M 14 13 L 15 13 L 15 14 L 14 14 z M 26 13 L 27 13 L 27 15 L 25 15 L 25 14 L 26 14 z M 31 13 L 33 13 L 33 14 L 32 14 L 32 15 L 31 15 z M 0 14 L 1 14 L 1 15 L 0 15 z M 2 14 L 7 14 L 7 15 L 6 15 L 6 16 L 8 16 L 8 17 L 6 17 L 6 18 L 5 18 L 5 16 L 4 16 L 4 15 L 2 15 z M 8 14 L 10 14 L 10 15 L 9 15 L 9 16 L 8 16 z M 22 14 L 23 14 L 23 16 L 24 16 L 24 15 L 25 15 L 25 16 L 26 16 L 26 17 L 24 17 L 24 18 L 23 18 L 23 17 L 22 17 L 22 16 L 21 16 L 21 15 L 22 15 z M 1 15 L 2 15 L 2 16 L 1 16 z M 14 15 L 15 15 L 15 16 L 14 16 z M 27 15 L 28 15 L 28 16 L 29 16 L 29 17 L 27 17 z M 30 15 L 31 15 L 31 16 L 30 16 z M 0 16 L 1 16 L 1 17 L 0 17 z M 2 16 L 4 16 L 4 17 L 3 17 L 3 18 L 4 18 L 4 19 L 2 19 L 2 18 L 1 18 L 1 17 L 2 17 z M 10 16 L 11 16 L 11 17 L 13 17 L 13 20 L 12 20 L 12 18 L 9 18 L 9 17 L 10 17 z M 13 16 L 14 16 L 14 17 L 13 17 z M 15 16 L 18 16 L 18 17 L 17 17 L 17 19 L 16 19 L 16 20 L 14 20 L 14 17 L 15 17 L 15 18 L 16 18 L 16 17 L 15 17 z M 31 16 L 32 16 L 32 17 L 33 17 L 33 18 L 32 18 L 32 19 L 31 19 z M 18 17 L 21 17 L 21 18 L 19 18 L 19 19 L 18 19 z M 26 17 L 27 17 L 27 18 L 26 18 z M 29 17 L 30 17 L 30 19 L 29 19 L 29 21 L 28 21 L 28 22 L 27 22 L 27 23 L 28 23 L 28 24 L 26 24 L 26 23 L 25 23 L 25 22 L 26 22 L 26 21 L 27 21 L 27 20 L 28 20 L 28 19 L 27 19 L 27 18 L 29 18 z M 0 18 L 1 18 L 1 20 L 0 20 z M 6 18 L 8 18 L 8 21 L 6 21 L 6 22 L 7 22 L 7 23 L 5 23 L 5 25 L 2 25 L 2 24 L 3 24 L 3 23 L 4 23 L 4 21 L 3 21 L 3 20 L 4 20 L 4 19 L 6 19 L 6 20 L 7 20 L 7 19 L 6 19 z M 21 18 L 22 18 L 22 19 L 24 19 L 24 20 L 25 20 L 25 22 L 23 22 L 23 21 L 22 21 L 22 20 L 21 20 L 21 22 L 23 22 L 23 24 L 24 24 L 24 25 L 23 25 L 23 26 L 19 26 L 19 27 L 18 27 L 18 26 L 17 26 L 17 28 L 14 28 L 14 27 L 12 27 L 12 26 L 11 26 L 11 25 L 13 25 L 13 26 L 14 26 L 14 25 L 15 25 L 15 26 L 16 26 L 16 25 L 15 25 L 15 24 L 18 24 L 18 25 L 20 25 L 20 24 L 21 24 L 21 25 L 22 25 L 22 24 L 21 24 L 21 23 L 20 23 L 20 22 L 18 22 L 18 21 L 20 21 L 20 19 L 21 19 z M 25 18 L 26 18 L 26 20 L 25 20 z M 9 19 L 11 19 L 11 20 L 10 20 L 10 21 L 11 21 L 11 20 L 12 20 L 12 21 L 13 21 L 13 22 L 10 22 L 10 23 L 9 23 z M 30 19 L 31 19 L 31 20 L 30 20 z M 13 20 L 14 20 L 14 21 L 13 21 z M 16 20 L 18 20 L 18 21 L 17 21 L 17 22 L 18 22 L 18 23 L 15 23 L 15 22 L 16 22 z M 31 20 L 32 20 L 32 21 L 33 21 L 33 22 L 32 22 L 32 23 L 31 23 z M 0 21 L 2 21 L 2 22 L 1 22 L 1 25 L 0 25 z M 14 21 L 15 21 L 15 22 L 14 22 z M 29 21 L 30 21 L 30 23 L 31 23 L 31 24 L 29 24 L 29 23 L 28 23 L 28 22 L 29 22 z M 2 22 L 3 22 L 3 23 L 2 23 z M 14 23 L 15 23 L 15 24 L 14 24 z M 19 23 L 20 23 L 20 24 L 19 24 z M 6 24 L 11 24 L 11 25 L 10 25 L 10 26 L 11 26 L 11 27 L 8 27 L 8 25 L 6 25 z M 13 24 L 14 24 L 14 25 L 13 25 z M 32 24 L 33 24 L 33 26 L 32 26 z M 30 25 L 31 25 L 31 26 L 32 26 L 32 27 L 31 27 L 31 28 L 30 28 L 30 29 L 29 29 L 29 26 L 30 26 z M 23 26 L 24 26 L 24 28 L 20 28 L 20 29 L 21 29 L 21 30 L 23 30 L 23 29 L 24 29 L 24 31 L 23 31 L 23 32 L 27 32 L 27 31 L 28 31 L 28 33 L 22 33 L 22 32 L 21 32 L 21 31 L 20 31 L 20 30 L 18 30 L 18 31 L 17 31 L 17 32 L 16 32 L 16 31 L 15 31 L 15 30 L 17 30 L 17 28 L 18 28 L 18 29 L 19 29 L 19 27 L 23 27 z M 11 27 L 12 27 L 12 28 L 11 28 z M 8 28 L 9 28 L 9 29 L 10 29 L 10 28 L 11 28 L 11 29 L 13 29 L 13 28 L 14 28 L 14 29 L 15 29 L 15 30 L 11 30 L 11 31 L 12 31 L 12 32 L 11 32 L 11 33 L 8 33 zM 9 31 L 10 31 L 10 32 L 9 32 z M 32 28 L 33 28 L 33 29 L 32 29 z M 25 29 L 26 29 L 26 30 L 25 30 z M 28 29 L 29 29 L 29 30 L 28 30 z M 30 29 L 31 29 L 31 30 L 32 30 L 32 31 L 31 31 L 31 32 L 30 32 L 30 33 L 29 33 L 29 31 L 30 31 z M 26 30 L 27 30 L 27 31 L 26 31 z M 14 31 L 15 31 L 15 32 L 14 32 z M 18 31 L 19 31 L 19 32 L 18 32 z M 13 32 L 14 32 L 14 33 L 13 33 z M 15 32 L 16 32 L 16 33 L 15 33 z M 17 32 L 18 32 L 18 33 L 17 33 z M 19 32 L 20 32 L 20 33 L 19 33 z M 31 32 L 32 32 L 32 33 L 31 33 z"></path><path id="qr squares" d="M0,0h7h0v0v7v0h0h-7h0v0v-7v0h0zM1,1h5h0v0v5v0h0h-5h0v0v-5v0h0zM2,2h3h0v0v3v0h0h-3h0v0v-3v0h0z M26,0h7h0v0v7v0h0h-7h0v0v-7v0h0zM27,1h5h0v0v5v0h0h-5h0v0v-5v0h0zM28,2h3h0v0v3v0h0h-3h0v0v-3v0h0z M0,26h7h0v0v7v0h0h-7h0v0v-7v0h0zM1,27h5h0v0v5v0h0h-5h0v0v-5v0h0zM2,28h3h0v0v3v0h0h-3h0v0v-3v0h0zM24,24h5h0v0v5v0h0h-5h0v0v-5v0h0zM25,25h3h0v0v3v0h0h-3h0v0v-3v0h0zM26,26h1h0v0v1v0h0h-1h0v0v-1v0h0z" fill-rule="evenodd" fill-opacity="1" fill="rgb(0, 0, 0)"></path></svg>